Patient4_TMGait_0pt4_02_right_04_GRF.mot
version=1
nRows=65
nColumns=19
inDegrees=no
endheader
time	F1x	F1y	F1z	M1x	M1y	M1z	F2x	F2y	F2z	M2x	M2y	M2z	EC1x	EC1y	EC1z	EC2x	EC2y	EC2z
4.61	12.7337	749.0161	78.0559	-264.3352	-74.6922	814.6733	-23.6504	-3.3616	3.4518	-1.2482	1.9871	9.9088	-0.0592	0.0182	-0.0073	-0.0462	0.0165	0.9585
4.6237	10.9203	746.4269	70.6957	-263.2669	-67.5727	808.9814	-15.9839	-1.9127	2.2843	-0.66855	1.3901	7.1135	-0.0592	0.0182	-0.0073	-0.0462	0.0165	0.9585
4.6374	9.6028	744.7555	64.1292	-262.523	-61.0164	804.1256	-9.5099	-0.63664	1.2996	-0.17005	0.89692	4.8081	-0.0592	0.0182	-0.0073	-0.0462	0.0165	0.9585
4.6511	8.8786	744.4224	58.7238	-262.2545	-55.3851	800.6748	-4.5918	0.38043	0.55901	0.21792	0.52507	3.1012	-0.0592	0.0182	-0.0073	-0.0462	0.0165	0.9585
4.6649	8.7008	745.5887	54.5875	-262.5051	-50.8262	798.8766	-1.2028	1.1301	0.059482	0.49553	0.2704	1.9653	-0.0592	0.0182	-0.0073	-0.0462	0.0165	0.9585
4.6786	8.963	748.2088	51.6232	-263.2376	-47.3045	798.72	0.8639	1.6445	-0.23733	0.67601	0.12168	1.3115	-0.0592	0.0182	-0.0073	-0.0462	0.0165	0.9585
4.6923	9.5376	752.0541	49.6722	-264.3494	-44.7264	799.9862	1.9171	1.9383	-0.37741	0.7692	0.051051	0.97357	-0.0592	0.0182	-0.0073	-0.0462	0.0165	0.9585
4.706	10.3081	756.741	48.5483	-265.6884	-42.9555	802.2797	2.243	2.0423	-0.41574	0.78732	0.04473	0.82175	-0.0592	0.0182	-0.0073	-0.0462	0.0165	0.9585
4.7197	11.1926	761.783	48.07	-267.0763	-41.8432	805.0853	2.1034	1.9514	-0.39318	0.7321	0.078657	0.69675	-0.0592	0.0182	-0.0073	-0.0462	0.0165	0.9585
4.7334	12.1287	766.6615	48.0906	-268.327	-41.2625	807.8447	1.6888	1.6266	-0.3476	0.59299	0.14415	0.43653	-0.0592	0.0182	-0.0073	-0.0462	0.0165	0.9585
4.7471	13.109	770.8884	48.4818	-269.2679	-41.092	810.017	1.1332	1.0289	-0.30127	0.35601	0.23101	-0.088148	-0.0592	0.0182	-0.0073	-0.0462	0.0165	0.9585
4.7609	14.1357	774.0592	49.1649	-269.7586	-41.2489	811.1526	0.55893	0.10601	-0.27471	0.0011697	0.33694	-1.0011	-0.0592	0.0182	-0.0073	-0.0462	0.0165	0.9585
4.7746	15.2314	775.8285	50.0839	-269.6825	-41.6639	810.8553	0.035464	-1.1598	-0.26924	-0.48151	0.45374	-2.3521	-0.0592	0.0182	-0.0073	-0.0462	0.0165	0.9585
4.7883	16.4277	775.8525	51.2295	-268.9275	-42.3085	808.7397	-0.344	-2.7488	-0.29104	-1.0851	0.55701	-4.1362	-0.0592	0.0182	-0.0073	-0.0462	0.0165	0.9585
4.802	17.7506	773.8977	52.5824	-267.4206	-43.1493	804.548	-0.46176	-4.5324	-0.33572	-1.7615	0.59791	-6.2011	-0.0592	0.0182	-0.0073	-0.0462	0.0165	0.9585
4.8157	19.2467	769.9716	54.1379	-265.1715	-44.1637	798.2798	-0.17796	-6.2283	-0.38808	-2.4034	0.50486	-8.1956	-0.0592	0.0182	-0.0073	-0.0462	0.0165	0.9585
4.8294	20.9433	764.3673	55.8801	-262.294	-45.323	790.2582	0.69677	-7.3444	-0.41969	-2.8221	0.1782	-9.5224	-0.0592	0.0182	-0.0073	-0.0462	0.0165	0.9585
4.8431	22.8831	757.6322	57.7854	-258.9933	-46.5895	781.0655	2.3641	-7.0916	-0.39518	-2.7168	-0.49422	-9.2165	-0.0592	0.0182	-0.0073	-0.0462	0.0165	0.9585
4.8569	25.1013	750.4212	59.7901	-255.5133	-47.8888	771.3914	5.0378	-4.3617	-0.27285	-1.6643	-1.6368	-5.9337	-0.0592	0.0182	-0.0073	-0.0462	0.0165	0.9585
4.8706	27.6294	743.282	61.7871	-252.0543	-49.1064	761.8188	8.855	2.2685	-0.0032913	0.87824	-3.3536	2.0475	-0.0592	0.0182	-0.0073	-0.0462	0.0165	0.9585
4.8843	30.4886	736.386	63.6219	-248.6849	-50.0817	752.5407	13.7747	14.422	0.45261	5.5293	-5.668	16.684	-0.0592	0.0182	-0.0073	-0.0462	0.0165	0.9585
4.898	33.5932	729.3843	65.1048	-245.2939	-50.6512	743.264	19.4553	33.6581	1.1301	12.8854	-8.4783	39.8487	-0.0592	0.0182	-0.0073	-0.0462	0.0165	0.9585
4.9117	36.7558	721.3552	65.978	-241.5831	-50.6224	733.1391	25.0413	61.0149	2.025	23.3466	-11.4503	72.7979	-0.0592	0.0182	-0.0073	-0.0462	0.0165	0.9585
4.9254	39.6857	710.9078	65.9651	-237.1034	-49.8184	720.873	28.9882	96.2722	3.083	36.8372	-13.9351	115.2758	-0.0592	0.0182	-0.0073	-0.0462	0.0165	0.9585
4.9391	42.0532	696.4578	64.7897	-231.3534	-48.0779	704.9776	29.2238	137.3189	4.0798	52.5511	-14.9104	164.8019	-0.0592	0.0182	-0.0073	-0.0462	0.0165	0.9585
4.9529	43.6112	676.6544	62.2971	-223.9183	-45.328	684.144	24.8375	180.5878	4.6851	69.0791	-13.6422	217.2515	-0.0592	0.0182	-0.0073	-0.0462	0.0165	0.9585
4.9666	44.2758	650.7756	58.5135	-214.595	-41.6179	657.6174	16.9576	221.4179	4.416	84.6087	-10.0539	267.0478	-0.0592	0.0182	-0.0073	-0.0462	0.0165	0.9585
4.9803	44.1362	618.7602	53.7015	-203.3936	-37.1671	625.2269	7.8353	256.8196	3.08	97.9688	-4.778	310.4062	-0.0592	0.0182	-0.0073	-0.0462	0.0165	0.9585
4.994	43.3336	580.9479	48.2682	-190.4441	-32.3196	587.1894	-1.2642	286.9206	0.57907	109.1876	1.7919	347.312	-0.0592	0.0182	-0.0073	-0.0462	0.0165	0.9585
5.0077	41.9712	537.9629	42.6064	-175.9527	-27.4175	544.0353	-9.8663	314.0977	-2.8013	119.1933	9.1598	380.5229	-0.0592	0.0182	-0.0073	-0.0462	0.0165	0.9585
5.0214	40.0912	490.6563	37.0136	-160.188	-22.731	496.5532	-17.8995	341.327	-6.9265	129.1551	17.118	413.5275	-0.0592	0.0182	-0.0073	-0.0462	0.0165	0.9585
5.0351	37.6243	440.1009	31.6285	-143.4814	-18.4131	445.7909	-25.2397	371.5427	-11.5484	140.2166	25.3616	449.6654	-0.0592	0.0182	-0.0073	-0.0462	0.0165	0.9585
5.0489	34.442	387.4884	26.5898	-126.1948	-14.6345	392.9224	-31.5839	407.1446	-16.7863	153.2922	33.9108	491.5941	-0.0592	0.0182	-0.0073	-0.0462	0.0165	0.9585
5.0626	30.4018	334.1493	22.008	-108.7288	-11.5502	339.2842	-36.6492	449.3884	-22.7018	168.8505	42.7527	540.6338	-0.0592	0.0182	-0.0073	-0.0462	0.0165	0.9585
5.0763	25.4103	281.5281	18.0132	-91.5212	-9.3205	286.3435	-40.3818	497.8471	-29.4554	186.7067	52.0352	596.2158	-0.0592	0.0182	-0.0073	-0.0462	0.0165	0.9585
5.09	19.5653	231.203	14.6573	-75.0664	-7.9755	235.6807	-42.9263	550.5436	-37.0793	206.0899	61.8349	656.0294	-0.0592	0.0182	-0.0073	-0.0462	0.0165	0.9585
5.1037	13.2198	184.7761	11.9618	-59.8788	-7.4294	188.8982	-44.5953	604.6856	-45.3229	225.9412	71.9662	716.8933	-0.0592	0.0182	-0.0073	-0.0462	0.0165	0.9585
5.1174	6.9683	143.5256	9.8779	-46.3814	-7.4485	147.2411	-45.6778	657.3175	-53.7199	245.1624	81.9898	775.489	-0.0592	0.0182	-0.0073	-0.0462	0.0165	0.9585
5.1311	1.3845	108.1367	8.279	-34.8118	-7.7233	111.3918	-46.3046	705.595	-61.6297	262.7177	91.2243	828.6494	-0.0592	0.0182	-0.0073	-0.0462	0.0165	0.9585
5.1449	-3.1079	78.7004	6.9867	-25.2136	-7.9391	81.4558	-46.5227	746.9575	-68.4895	277.6797	99.0383	873.5568	-0.0592	0.0182	-0.0073	-0.0462	0.0165	0.9585
5.1586	-6.2255	54.8983	5.8309	-17.4885	-7.837	57.142	-46.3227	779.3484	-73.8375	289.3132	104.9102	907.9485	-0.0592	0.0182	-0.0073	-0.0462	0.0165	0.9585
5.1723	-7.8358	36.1705	4.7037	-11.4507	-7.2637	37.9263	-45.6846	801.4467	-77.5158	297.1429	108.6503	930.4184	-0.0592	0.0182	-0.0073	-0.0462	0.0165	0.9585
5.186	-7.9472	21.9055	3.5666	-6.8937	-6.1883	23.2143	-44.5633	812.7685	-79.5206	300.9972	110.2567	940.5006	-0.0592	0.0182	-0.0073	-0.0462	0.0165	0.9585
5.1997	-6.8818	11.5973	2.4712	-3.6361	-4.7687	12.5262	-42.9509	813.7074	-80.0678	301.0251	109.9802	938.7329	-0.0592	0.0182	-0.0073	-0.0462	0.0165	0.9585
5.2134	-5.2664	4.7986	1.5305	-1.5135	-3.3202	5.4339	-40.8805	805.5611	-79.3865	297.7116	108.1161	926.6665	-0.0592	0.0182	-0.0073	-0.0462	0.0165	0.9585
5.2271	-3.5748	0.83136	0.82083	-0.29673	-2.0731	1.2629	-38.4034	790.4627	-77.7663	291.8507	105.0311	906.7803	-0.0592	0.0182	-0.0073	-0.0462	0.0165	0.9585
5.2409	-2.1022	-1.0473	0.32843	0.26027	-1.1076	-0.72701	-35.625	771.2159	-75.4808	284.4833	101.0927	882.2849	-0.0592	0.0182	-0.0073	-0.0462	0.0165	0.9585
5.2546	-0.93527	-1.5376	0.032186	0.38326	-0.43048	-1.2752	-32.6752	750.8702	-72.8617	276.7395	96.7329	856.6351	-0.0592	0.0182	-0.0073	-0.0462	0.0165	0.9585
5.2683	-0.1092	-1.2022	-0.12622	0.25147	0.0071645	-0.9469	-29.7098	732.304	-70.2136	269.6806	92.3643	833.0721	-0.0592	0.0182	-0.0073	-0.0462	0.0165	0.9585
5.282	0.42736	-0.46038	-0.19107	-0.0016846	0.25861	-0.1814	-26.8766	717.8762	-67.7967	264.1772	88.3398	814.219	-0.0592	0.0182	-0.0073	-0.0462	0.0165	0.9585
5.2957	0.73697	0.41844	-0.19842	-0.29099	0.37474	0.73611	-24.3151	709.2161	-65.7896	260.8296	84.9128	801.8624	-0.0592	0.0182	-0.0073	-0.0462	0.0165	0.9585
5.3094	0.87058	1.277	-0.17508	-0.56659	0.39677	1.6456	-22.1142	707.0598	-64.2917	259.9086	82.2232	796.7765	-0.0592	0.0182	-0.0073	-0.0462	0.0165	0.9585
5.3231	0.89989	2.0089	-0.13949	-0.79736	0.36638	2.4139	-20.3054	711.2465	-63.3454	261.3527	80.3151	798.7292	-0.0592	0.0182	-0.0073	-0.0462	0.0165	0.9585
5.3369	0.84729	2.5832	-0.098902	-0.97194	0.30216	3.0215	-18.8838	720.8718	-62.9097	264.8223	79.1232	806.6736	-0.0592	0.0182	-0.0073	-0.0462	0.0165	0.9585
5.3506	0.75434	2.9715	-0.064694	-1.0824	0.23065	3.4328	-17.8205	734.4463	-62.9014	269.7627	78.523	818.9284	-0.0592	0.0182	-0.0073	-0.0462	0.0165	0.9585
5.3643	0.63298	3.1397	-0.03101	-1.1196	0.15286	3.6078	-17.1001	750.1213	-63.1753	275.4877	78.3325	833.4479	-0.0592	0.0182	-0.0073	-0.0462	0.0165	0.9585
5.378	0.48534	3.0589	-0.0045776	-1.0752	0.07645	3.5111	-16.6936	765.9167	-63.5881	281.2625	78.3748	848.066	-0.0592	0.0182	-0.0073	-0.0462	0.0165	0.9585
5.3917	0.32748	2.6667	0.01687	-0.92646	0.0057849	3.0571	-16.5635	779.9624	-63.9767	286.3967	78.4571	860.7559	-0.0592	0.0182	-0.0073	-0.0462	0.0165	0.9585
5.4054	0.15438	1.8982	0.02124	-0.64594	-0.046054	2.1719	-16.6505	790.7273	-64.225	290.3278	78.4291	869.8692	-0.0592	0.0182	-0.0073	-0.0462	0.0165	0.9585
5.4191	-0.015025	0.68144	0.00096455	-0.20614	-0.062982	0.75503	-16.8348	797.1782	-64.2304	292.6783	78.1429	874.275	-0.0592	0.0182	-0.0073	-0.0462	0.0165	0.9585
5.4329	-0.1516	-1.0133	-0.039907	0.40451	-0.041297	-1.228	-16.9688	798.7933	-63.9592	293.2552	77.5105	873.394	-0.0592	0.0182	-0.0073	-0.0462	0.0165	0.9585
5.4466	-0.20821	-3.1376	-0.11437	1.1668	0.045165	-3.7181	-16.8516	795.5018	-63.4273	292.0292	76.4821	867.1113	-0.0592	0.0182	-0.0073	-0.0462	0.0165	0.9585
5.4603	-0.10769	-5.5075	-0.21207	2.0143	0.21278	-6.5088	-16.2782	787.6792	-62.7167	289.1292	75.0742	855.7901	-0.0592	0.0182	-0.0073	-0.0462	0.0165	0.9585
5.474	0.22809	-7.6994	-0.35208	2.7955	0.51146	-9.1042	-15.0637	776.0848	-61.935	284.8234	73.3357	840.1915	-0.0592	0.0182	-0.0073	-0.0462	0.0165	0.9585
5.4877	0.91562	-9.0128	-0.52577	3.2572	0.97816	-10.6833	-13.046	761.7503	-61.2026	279.4836	71.3356	821.3628	-0.0592	0.0182	-0.0073	-0.0462	0.0165	0.9585
